<svg xmlns="http://www.w3.org/2000/svg" xmlns:xlink="http://www.w3.org/1999/xlink" version="1.1" id="图层_1" x="0px" y="0px" viewBox="0 0 200 172.1" style="enable-background:new 0 0 200 172.1;" xml:space="preserve">
<style type="text/css">
	.st0{fill:#FF4E4E;}
</style>
<path class="st0" d="M116.7,8.6c0,0.8,1.7,2.5,4.2,6.7c2.5,4.2,5,8.3,8.3,15c3.3,6.7,7.5,12.5,11.7,20c4.2,7.5,9.2,15,13.3,22.5  c4.2,7.5,9.2,15.8,13.3,23.3c4.2,7.5,8.3,15,12.5,20.8c3.3,6.7,6.7,11.7,10,16.7c3.3,5,4.2,7.5,5.8,9.2c1.7,3.3,3.3,6.7,3.3,10  c0.8,3.3,0,5.8-0.8,9.2c-0.8,3.3-2.5,5-4.2,6.7c-2.5,1.7-5,2.5-8.3,2.5l-168.3,0c-5,0-9.2-0.8-11.7-2.5c-2.5-1.7-4.2-4.2-5-6.7  s-0.8-5.8,0-8.3c0.8-3.3,1.7-5.8,4.2-9.2c0.8-1.7,2.5-4.2,5-9.2c2.5-4.2,5.8-10,10-15.8c4.2-6.7,8.3-13.3,12.5-20.8  s9.2-15.8,14.2-23.3c5-7.5,9.2-15.8,13.3-23.3c4.2-7.5,8.3-14.2,11.7-20s6.7-10.8,9.2-15l4.2-6.7c1.7-2.5,4.2-5,7.5-6.7  c3.3-1.7,5.8-2.5,9.2-2.5c3.3,0,5.8,0.8,9.2,1.7C112.5,3.6,115,6.1,116.7,8.6L116.7,8.6z M111.7,46.9c0-1.7,0-3.3-0.8-4.2  c-0.8-1.7-1.7-2.5-2.5-3.3c-0.8-0.8-2.5-1.7-4.2-2.5c-1.7-0.8-3.3-1.7-5-1.7c-3.3,0-5.8,0.8-8.3,3.3s-4.2,5-4.2,8.3v51.7  c0,3.3,1.7,5.8,4.2,8.3c2.5,2.5,5,3.3,8.3,3.3c3.3,0,5.8-0.8,8.3-3.3c2.5-2.5,4.2-5,4.2-8.3V46.9z M99.2,121.9  c-3.3,0-6.7,0.8-8.3,3.3c-1.7,2.5-3.3,5-3.3,8.3c0,3.3,0.8,6.7,3.3,8.3c2.5,2.5,5,3.3,8.3,3.3c3.3,0,6.7-0.8,8.3-3.3  c2.5-2.5,3.3-5,3.3-8.3c0-3.3-0.8-6.7-3.3-8.3C105.8,122.8,102.5,121.9,99.2,121.9z"/>
</svg>